<svg xmlns="http://www.w3.org/2000/svg" width="500" height="100" viewBox="0 0 280 48" fill="none">
<path d="M100 16C100 13.7909 101.791 12 104 12H115C117.209 12 119 13.7909 119 16V35H100V16Z" fill="#E8ECF2"/>
<path d="M41 16C41 13.7909 42.7909 12 45 12H56C58.2091 12 60 13.7909 60 16V35H41V16Z" fill="#E8ECF2"/>
<path d="M196 20C196 17.7909 197.791 16 200 16H211C213.209 16 215 17.7909 215 20V35H196V20Z" fill="#E8ECF2"/>
<path d="M220 14C220 11.7909 221.791 10 224 10H235C237.209 10 239 11.7909 239 14V35H220V14Z" fill="#E8ECF2"/>
<path d="M160 14C160 11.7909 161.791 10 164 10H175C177.209 10 179 11.7909 179 14V35H160V14Z" fill="#E8ECF2"/>
<path d="M273 38.5C274.381 38.5 275.5 37.3807 275.5 36C275.5 34.6193 274.381 33.5 273 33.5V38.5ZM273 33.5L6 33.5V38.5L273 38.5V33.5Z" fill="#E8ECF2"/>

    
</svg>